{
	"patcher" : 	{
		"fileversion" : 1,
		"appversion" : 		{
			"major" : 8,
			"minor" : 5,
			"revision" : 6,
			"architecture" : "x64",
			"modernui" : 1
		}
,
		"classnamespace" : "box",
		"rect" : [ 0.0, 0.0, 640.0, 480.0 ],
		"bglocked" : 0,
		"openinpresentation" : 0,
		"default_fontsize" : 12.0,
		"default_fontface" : 0,
		"default_fontname" : "Arial",
		"gridonopen" : 1,
		"gridsize" : [ 15.0, 15.0 ],
		"gridsnaponopen" : 1,
		"objectsnaponopen" : 1,
		"statusbarvisible" : 2,
		"toolbarvisible" : 1,
		"lefttoolbarpinned" : 0,
		"toptoolbarpinned" : 0,
		"righttoolbarpinned" : 0,
		"bottomtoolbarpinned" : 0,
		"toolbars_unpinned_last_save" : 0,
		"tallnewobj" : 0,
		"boxanimatetime" : 200,
		"enablehscroll" : 1,
		"enablevscroll" : 1,
		"devicewidth" : 0.0,
		"description" : "",
		"digest" : "",
		"tags" : "",
		"style" : "",
		"subpatcher_template" : "",
		"assistshowspatchername" : 0,
		"boxes" : [ 			{
				"box" : 				{
					"id" : "obj-62",
					"maxclass" : "toggle",
					"numinlets" : 1,
					"numoutlets" : 1,
					"outlettype" : [ "int" ],
					"parameter_enable" : 0,
					"patching_rect" : [ 885.0, 202.0, 24.0, 24.0 ]
				}

			}
, 			{
				"box" : 				{
					"id" : "obj-60",
					"maxclass" : "jit.pwindow",
					"numinlets" : 1,
					"numoutlets" : 2,
					"outlettype" : [ "jit_matrix", "" ],
					"patching_rect" : [ 625.0, 506.0, 217.0, 180.0 ],
					"sync" : 1
				}

			}
, 			{
				"box" : 				{
					"id" : "obj-59",
					"maxclass" : "jit.pwindow",
					"numinlets" : 1,
					"numoutlets" : 2,
					"outlettype" : [ "jit_matrix", "" ],
					"patching_rect" : [ 388.0, 506.0, 217.0, 180.0 ],
					"sync" : 1
				}

			}
, 			{
				"box" : 				{
					"id" : "obj-58",
					"maxclass" : "newobj",
					"numinlets" : 6,
					"numoutlets" : 1,
					"outlettype" : [ "" ],
					"patching_rect" : [ 481.0, 425.0, 107.0, 22.0 ],
					"text" : "scale 0 1000 -8. 8."
				}

			}
, 			{
				"box" : 				{
					"id" : "obj-57",
					"maxclass" : "newobj",
					"numinlets" : 1,
					"numoutlets" : 1,
					"outlettype" : [ "" ],
					"patching_rect" : [ 481.0, 398.0, 124.0, 22.0 ],
					"text" : "expr random(0\\, 1000)"
				}

			}
, 			{
				"box" : 				{
					"id" : "obj-55",
					"maxclass" : "newobj",
					"numinlets" : 0,
					"numoutlets" : 1,
					"outlettype" : [ "" ],
					"patching_rect" : [ 354.0, 356.0, 53.0, 22.0 ],
					"text" : "r qmetro"
				}

			}
, 			{
				"box" : 				{
					"id" : "obj-54",
					"maxclass" : "newobj",
					"numinlets" : 0,
					"numoutlets" : 1,
					"outlettype" : [ "" ],
					"patching_rect" : [ 76.0, 227.0, 53.0, 22.0 ],
					"text" : "r qmetro"
				}

			}
, 			{
				"box" : 				{
					"id" : "obj-53",
					"maxclass" : "newobj",
					"numinlets" : 0,
					"numoutlets" : 1,
					"outlettype" : [ "" ],
					"patching_rect" : [ 304.0, 263.0, 53.0, 22.0 ],
					"text" : "r qmetro"
				}

			}
, 			{
				"box" : 				{
					"id" : "obj-52",
					"maxclass" : "newobj",
					"numinlets" : 1,
					"numoutlets" : 0,
					"patching_rect" : [ 24.0, 83.0, 55.0, 22.0 ],
					"text" : "s qmetro"
				}

			}
, 			{
				"box" : 				{
					"id" : "obj-48",
					"maxclass" : "jit.pwindow",
					"numinlets" : 1,
					"numoutlets" : 2,
					"outlettype" : [ "jit_matrix", "" ],
					"patching_rect" : [ 131.0, 506.0, 238.0, 184.0 ],
					"sync" : 1
				}

			}
, 			{
				"box" : 				{
					"id" : "obj-45",
					"maxclass" : "newobj",
					"numinlets" : 2,
					"numoutlets" : 1,
					"outlettype" : [ "bang" ],
					"patching_rect" : [ 872.0, 272.0, 119.0, 22.0 ],
					"text" : "metro 400 @active 1"
				}

			}
, 			{
				"box" : 				{
					"id" : "obj-44",
					"maxclass" : "newobj",
					"numinlets" : 1,
					"numoutlets" : 2,
					"outlettype" : [ "jit_gl_texture", "" ],
					"patching_rect" : [ 131.0, 465.0, 70.0, 22.0 ],
					"text" : "jit.gl.texture"
				}

			}
, 			{
				"box" : 				{
					"id" : "obj-42",
					"maxclass" : "button",
					"numinlets" : 1,
					"numoutlets" : 1,
					"outlettype" : [ "bang" ],
					"parameter_enable" : 0,
					"patching_rect" : [ 980.0, 349.0, 24.0, 24.0 ]
				}

			}
, 			{
				"box" : 				{
					"id" : "obj-40",
					"maxclass" : "button",
					"numinlets" : 1,
					"numoutlets" : 1,
					"outlettype" : [ "bang" ],
					"parameter_enable" : 0,
					"patching_rect" : [ 930.0, 357.0, 24.0, 24.0 ]
				}

			}
, 			{
				"box" : 				{
					"id" : "obj-27",
					"maxclass" : "newobj",
					"numinlets" : 2,
					"numoutlets" : 0,
					"patcher" : 					{
						"fileversion" : 1,
						"appversion" : 						{
							"major" : 8,
							"minor" : 5,
							"revision" : 6,
							"architecture" : "x64",
							"modernui" : 1
						}
,
						"classnamespace" : "box",
						"rect" : [ 34.0, 99.0, 1444.0, 849.0 ],
						"bglocked" : 0,
						"openinpresentation" : 0,
						"default_fontsize" : 12.0,
						"default_fontface" : 0,
						"default_fontname" : "Arial",
						"gridonopen" : 1,
						"gridsize" : [ 15.0, 15.0 ],
						"gridsnaponopen" : 1,
						"objectsnaponopen" : 1,
						"statusbarvisible" : 2,
						"toolbarvisible" : 1,
						"lefttoolbarpinned" : 0,
						"toptoolbarpinned" : 0,
						"righttoolbarpinned" : 0,
						"bottomtoolbarpinned" : 0,
						"toolbars_unpinned_last_save" : 0,
						"tallnewobj" : 0,
						"boxanimatetime" : 200,
						"enablehscroll" : 1,
						"enablevscroll" : 1,
						"devicewidth" : 0.0,
						"description" : "",
						"digest" : "",
						"tags" : "",
						"style" : "",
						"subpatcher_template" : "",
						"assistshowspatchername" : 0,
						"boxes" : [ 							{
								"box" : 								{
									"comment" : "",
									"id" : "obj-4",
									"index" : 1,
									"maxclass" : "inlet",
									"numinlets" : 0,
									"numoutlets" : 1,
									"outlettype" : [ "bang" ],
									"patching_rect" : [ 518.0, 136.0, 30.0, 30.0 ]
								}

							}
, 							{
								"box" : 								{
									"id" : "obj-31",
									"maxclass" : "newobj",
									"numinlets" : 1,
									"numoutlets" : 1,
									"outlettype" : [ "" ],
									"patching_rect" : [ 655.0, 666.0, 85.0, 22.0 ],
									"text" : "prepend patch"
								}

							}
, 							{
								"box" : 								{
									"id" : "obj-29",
									"linecount" : 2,
									"maxclass" : "message",
									"numinlets" : 2,
									"numoutlets" : 1,
									"outlettype" : [ "" ],
									"patching_rect" : [ 655.0, 475.0, 517.0, 35.0 ],
									"text" : "20 47 38 57 42 6 3 16 32 4 12 9 37 30 63 19 47 57 30 35 7 46 14 58 27 63 13 55 13 9 60 16 56 36 43 25 59 40 3 17 3 14 27 14 45 24 60 60 48 8 54 23 47 3 19 28 33 4 23 42 35 11 9 0"
								}

							}
, 							{
								"box" : 								{
									"id" : "obj-27",
									"linecount" : 3,
									"maxclass" : "message",
									"numinlets" : 2,
									"numoutlets" : 1,
									"outlettype" : [ "" ],
									"patching_rect" : [ 655.0, 435.0, 517.0, 49.0 ],
									"text" : "58 51 42 52 43 46 53 50 46 62 34 5 22 17 63 8 3 13 10 12 22 12 36 22 8 5 13 46 35 36 50 57 59 24 21 6 55 32 28 0 30 24 29 28 23 12 15 52 30 48 45 52 5 43 43 53 21 48 17 50 13 33 10 54"
								}

							}
, 							{
								"box" : 								{
									"id" : "obj-25",
									"linecount" : 2,
									"maxclass" : "message",
									"numinlets" : 2,
									"numoutlets" : 1,
									"outlettype" : [ "" ],
									"patching_rect" : [ 655.0, 389.0, 519.0, 35.0 ],
									"text" : "52 63 53 58 58 9 17 13 0 11 57 42 1 31 59 8 33 56 55 28 49 33 47 1 38 4 55 0 59 16 52 42 1 26 49 47 47 47 47 35 28 22 39 19 7 24 63 8 28 51 52 22 38 10 8 54 34 24 41 32 63 48 22 39"
								}

							}
, 							{
								"box" : 								{
									"id" : "obj-23",
									"linecount" : 3,
									"maxclass" : "message",
									"numinlets" : 2,
									"numoutlets" : 1,
									"outlettype" : [ "" ],
									"patching_rect" : [ 655.0, 342.0, 517.0, 49.0 ],
									"text" : "53 21 46 33 43 31 17 20 36 4 15 14 17 34 14 62 19 33 0 39 38 8 39 48 9 53 52 30 25 7 33 26 34 58 43 61 23 37 51 54 12 20 41 47 53 32 10 56 46 12 59 55 33 51 13 8 43 37 21 44 0 25 48 39"
								}

							}
, 							{
								"box" : 								{
									"id" : "obj-21",
									"maxclass" : "newobj",
									"numinlets" : 2,
									"numoutlets" : 2,
									"outlettype" : [ "", "" ],
									"patching_rect" : [ 992.743918895721436, 302.0, 61.0, 22.0 ],
									"text" : "zl slice 64"
								}

							}
, 							{
								"box" : 								{
									"id" : "obj-20",
									"maxclass" : "newobj",
									"numinlets" : 2,
									"numoutlets" : 2,
									"outlettype" : [ "", "" ],
									"patching_rect" : [ 1115.743918895721436, 302.0, 61.0, 22.0 ],
									"text" : "zl slice 64"
								}

							}
, 							{
								"box" : 								{
									"id" : "obj-19",
									"maxclass" : "newobj",
									"numinlets" : 2,
									"numoutlets" : 2,
									"outlettype" : [ "", "" ],
									"patching_rect" : [ 1045.0, 271.0, 68.0, 22.0 ],
									"text" : "zl slice 128"
								}

							}
, 							{
								"box" : 								{
									"id" : "obj-18",
									"maxclass" : "newobj",
									"numinlets" : 2,
									"numoutlets" : 2,
									"outlettype" : [ "", "" ],
									"patching_rect" : [ 1045.0, 245.0, 75.0, 22.0 ],
									"text" : "zl.group 256"
								}

							}
, 							{
								"box" : 								{
									"id" : "obj-17",
									"maxclass" : "newobj",
									"numinlets" : 1,
									"numoutlets" : 1,
									"outlettype" : [ "" ],
									"patching_rect" : [ 1045.0, 218.0, 111.0, 22.0 ],
									"text" : "expr random(0\\, 64)"
								}

							}
, 							{
								"box" : 								{
									"id" : "obj-3",
									"maxclass" : "newobj",
									"numinlets" : 2,
									"numoutlets" : 3,
									"outlettype" : [ "bang", "bang", "int" ],
									"patching_rect" : [ 1045.0, 192.0, 47.0, 22.0 ],
									"text" : "uzi 256"
								}

							}
, 							{
								"box" : 								{
									"id" : "obj-1",
									"maxclass" : "newobj",
									"numinlets" : 5,
									"numoutlets" : 5,
									"outlettype" : [ "bang", "bang", "bang", "bang", "" ],
									"patching_rect" : [ 537.328266263008118, 314.0, 71.0, 22.0 ],
									"text" : "sel 0 4 8 12"
								}

							}
, 							{
								"box" : 								{
									"fontsize" : 24.0,
									"id" : "obj-2",
									"linecount" : 12,
									"maxclass" : "comment",
									"numinlets" : 1,
									"numoutlets" : 0,
									"patching_rect" : [ 16.0, 13.557823181152344, 286.0, 328.0 ],
									"text" : "Sorry for russian. I made this part for scientific conference in Russia. There is a generating of glued pieces sequence. I make the 16 vectors with 64 values (for each square of video) and put them inside jit.matrix with 16 planes. After I iterate every plane as a list and make routing."
								}

							}
, 							{
								"box" : 								{
									"id" : "obj-10",
									"maxclass" : "newobj",
									"numinlets" : 1,
									"numoutlets" : 0,
									"patching_rect" : [ 655.0, 691.538553237915039, 51.0, 22.0 ],
									"text" : "s routeit"
								}

							}
, 							{
								"box" : 								{
									"comment" : "",
									"id" : "obj-9",
									"index" : 2,
									"maxclass" : "inlet",
									"numinlets" : 0,
									"numoutlets" : 1,
									"outlettype" : [ "bang" ],
									"patching_rect" : [ 1042.791537761688232, 146.987957239151001, 30.0, 30.0 ]
								}

							}
, 							{
								"box" : 								{
									"id" : "obj-8",
									"maxclass" : "newobj",
									"numinlets" : 0,
									"numoutlets" : 1,
									"outlettype" : [ "" ],
									"patching_rect" : [ 537.328266263008118, 254.064705028533922, 73.0, 22.0 ],
									"text" : "r metrobang"
								}

							}
, 							{
								"box" : 								{
									"id" : "obj-134",
									"maxclass" : "newobj",
									"numinlets" : 2,
									"numoutlets" : 1,
									"outlettype" : [ "" ],
									"patching_rect" : [ 655.0, 638.342042155265858, 34.0, 22.0 ],
									"text" : "pack"
								}

							}
, 							{
								"box" : 								{
									"id" : "obj-133",
									"maxclass" : "button",
									"numinlets" : 1,
									"numoutlets" : 1,
									"outlettype" : [ "bang" ],
									"parameter_enable" : 0,
									"patching_rect" : [ 668.5, 578.0, 24.0, 24.0 ]
								}

							}
, 							{
								"box" : 								{
									"id" : "obj-131",
									"maxclass" : "newobj",
									"numinlets" : 5,
									"numoutlets" : 4,
									"outlettype" : [ "int", "", "", "int" ],
									"patching_rect" : [ 670.0, 608.506022691726685, 75.0, 22.0 ],
									"text" : "counter 0 63"
								}

							}
, 							{
								"box" : 								{
									"id" : "obj-129",
									"maxclass" : "newobj",
									"numinlets" : 1,
									"numoutlets" : 1,
									"outlettype" : [ "" ],
									"patching_rect" : [ 655.0, 545.926843166351318, 25.0, 22.0 ],
									"text" : "iter"
								}

							}
, 							{
								"box" : 								{
									"id" : "obj-119",
									"maxclass" : "newobj",
									"numinlets" : 5,
									"numoutlets" : 4,
									"outlettype" : [ "int", "", "", "int" ],
									"patching_rect" : [ 537.328266263008118, 287.891574501991272, 75.0, 22.0 ],
									"text" : "counter 15 0"
								}

							}
 ],
						"lines" : [ 							{
								"patchline" : 								{
									"destination" : [ "obj-23", 0 ],
									"source" : [ "obj-1", 0 ]
								}

							}
, 							{
								"patchline" : 								{
									"destination" : [ "obj-25", 0 ],
									"source" : [ "obj-1", 1 ]
								}

							}
, 							{
								"patchline" : 								{
									"destination" : [ "obj-27", 0 ],
									"source" : [ "obj-1", 2 ]
								}

							}
, 							{
								"patchline" : 								{
									"destination" : [ "obj-29", 0 ],
									"source" : [ "obj-1", 3 ]
								}

							}
, 							{
								"patchline" : 								{
									"destination" : [ "obj-1", 0 ],
									"source" : [ "obj-119", 0 ]
								}

							}
, 							{
								"patchline" : 								{
									"destination" : [ "obj-133", 0 ],
									"order" : 0,
									"source" : [ "obj-129", 0 ]
								}

							}
, 							{
								"patchline" : 								{
									"destination" : [ "obj-134", 0 ],
									"order" : 1,
									"source" : [ "obj-129", 0 ]
								}

							}
, 							{
								"patchline" : 								{
									"destination" : [ "obj-134", 1 ],
									"source" : [ "obj-131", 0 ]
								}

							}
, 							{
								"patchline" : 								{
									"destination" : [ "obj-131", 0 ],
									"source" : [ "obj-133", 0 ]
								}

							}
, 							{
								"patchline" : 								{
									"destination" : [ "obj-31", 0 ],
									"source" : [ "obj-134", 0 ]
								}

							}
, 							{
								"patchline" : 								{
									"destination" : [ "obj-18", 0 ],
									"source" : [ "obj-17", 0 ]
								}

							}
, 							{
								"patchline" : 								{
									"destination" : [ "obj-19", 0 ],
									"source" : [ "obj-18", 0 ]
								}

							}
, 							{
								"patchline" : 								{
									"destination" : [ "obj-20", 0 ],
									"source" : [ "obj-19", 1 ]
								}

							}
, 							{
								"patchline" : 								{
									"destination" : [ "obj-21", 0 ],
									"source" : [ "obj-19", 0 ]
								}

							}
, 							{
								"patchline" : 								{
									"destination" : [ "obj-27", 1 ],
									"source" : [ "obj-20", 0 ]
								}

							}
, 							{
								"patchline" : 								{
									"destination" : [ "obj-29", 1 ],
									"source" : [ "obj-20", 1 ]
								}

							}
, 							{
								"patchline" : 								{
									"destination" : [ "obj-23", 1 ],
									"source" : [ "obj-21", 0 ]
								}

							}
, 							{
								"patchline" : 								{
									"destination" : [ "obj-25", 1 ],
									"source" : [ "obj-21", 1 ]
								}

							}
, 							{
								"patchline" : 								{
									"destination" : [ "obj-129", 0 ],
									"source" : [ "obj-23", 0 ]
								}

							}
, 							{
								"patchline" : 								{
									"destination" : [ "obj-129", 0 ],
									"source" : [ "obj-25", 0 ]
								}

							}
, 							{
								"patchline" : 								{
									"destination" : [ "obj-129", 0 ],
									"source" : [ "obj-27", 0 ]
								}

							}
, 							{
								"patchline" : 								{
									"destination" : [ "obj-129", 0 ],
									"source" : [ "obj-29", 0 ]
								}

							}
, 							{
								"patchline" : 								{
									"destination" : [ "obj-17", 0 ],
									"source" : [ "obj-3", 0 ]
								}

							}
, 							{
								"patchline" : 								{
									"destination" : [ "obj-10", 0 ],
									"source" : [ "obj-31", 0 ]
								}

							}
, 							{
								"patchline" : 								{
									"destination" : [ "obj-119", 0 ],
									"source" : [ "obj-4", 0 ]
								}

							}
, 							{
								"patchline" : 								{
									"destination" : [ "obj-119", 0 ],
									"source" : [ "obj-8", 0 ]
								}

							}
, 							{
								"patchline" : 								{
									"destination" : [ "obj-3", 0 ],
									"source" : [ "obj-9", 0 ]
								}

							}
 ]
					}
,
					"patching_rect" : [ 941.730000000000018, 412.590920090675354, 67.0, 22.0 ],
					"saved_object_attributes" : 					{
						"description" : "",
						"digest" : "",
						"globalpatchername" : "",
						"tags" : ""
					}
,
					"text" : "p planeseq"
				}

			}
, 			{
				"box" : 				{
					"id" : "obj-38",
					"maxclass" : "newobj",
					"numinlets" : 1,
					"numoutlets" : 1,
					"outlettype" : [ "jit_matrix" ],
					"patcher" : 					{
						"fileversion" : 1,
						"appversion" : 						{
							"major" : 8,
							"minor" : 5,
							"revision" : 6,
							"architecture" : "x64",
							"modernui" : 1
						}
,
						"classnamespace" : "box",
						"rect" : [ 34.0, 99.0, 1444.0, 849.0 ],
						"bglocked" : 0,
						"openinpresentation" : 0,
						"default_fontsize" : 12.0,
						"default_fontface" : 0,
						"default_fontname" : "Arial",
						"gridonopen" : 1,
						"gridsize" : [ 15.0, 15.0 ],
						"gridsnaponopen" : 1,
						"objectsnaponopen" : 1,
						"statusbarvisible" : 2,
						"toolbarvisible" : 1,
						"lefttoolbarpinned" : 0,
						"toptoolbarpinned" : 0,
						"righttoolbarpinned" : 0,
						"bottomtoolbarpinned" : 0,
						"toolbars_unpinned_last_save" : 0,
						"tallnewobj" : 0,
						"boxanimatetime" : 200,
						"enablehscroll" : 1,
						"enablevscroll" : 1,
						"devicewidth" : 0.0,
						"description" : "",
						"digest" : "",
						"tags" : "",
						"style" : "",
						"subpatcher_template" : "",
						"assistshowspatchername" : 0,
						"boxes" : [ 							{
								"box" : 								{
									"id" : "obj-24",
									"maxclass" : "newobj",
									"numinlets" : 64,
									"numoutlets" : 2,
									"outlettype" : [ "jit_matrix", "" ],
									"patching_rect" : [ 102.0, 163.537853002548218, 680.5, 22.0 ],
									"text" : "jit.glue @rows 8 @columns 8"
								}

							}
, 							{
								"box" : 								{
									"id" : "obj-18",
									"maxclass" : "newobj",
									"numinlets" : 0,
									"numoutlets" : 1,
									"outlettype" : [ "" ],
									"patching_rect" : [ 50.0, 108.200325951576247, 50.0, 22.0 ],
									"text" : "r routeit"
								}

							}
, 							{
								"box" : 								{
									"id" : "obj-16",
									"maxclass" : "newobj",
									"numinlets" : 65,
									"numoutlets" : 65,
									"outlettype" : [ "", "", "", "", "", "", "", "", "", "", "", "", "", "", "", "", "", "", "", "", "", "", "", "", "", "", "", "", "", "", "", "", "", "", "", "", "", "", "", "", "", "", "", "", "", "", "", "", "", "", "", "", "", "", "", "", "", "", "", "", "", "", "", "", "" ],
									"patching_rect" : [ 102.0, 132.511056661605835, 691.0, 22.0 ],
									"text" : "router 64 64"
								}

							}
, 							{
								"box" : 								{
									"id" : "obj-4",
									"maxclass" : "newobj",
									"numinlets" : 1,
									"numoutlets" : 65,
									"outlettype" : [ "jit_matrix", "jit_matrix", "jit_matrix", "jit_matrix", "jit_matrix", "jit_matrix", "jit_matrix", "jit_matrix", "jit_matrix", "jit_matrix", "jit_matrix", "jit_matrix", "jit_matrix", "jit_matrix", "jit_matrix", "jit_matrix", "jit_matrix", "jit_matrix", "jit_matrix", "jit_matrix", "jit_matrix", "jit_matrix", "jit_matrix", "jit_matrix", "jit_matrix", "jit_matrix", "jit_matrix", "jit_matrix", "jit_matrix", "jit_matrix", "jit_matrix", "jit_matrix", "jit_matrix", "jit_matrix", "jit_matrix", "jit_matrix", "jit_matrix", "jit_matrix", "jit_matrix", "jit_matrix", "jit_matrix", "jit_matrix", "jit_matrix", "jit_matrix", "jit_matrix", "jit_matrix", "jit_matrix", "jit_matrix", "jit_matrix", "jit_matrix", "jit_matrix", "jit_matrix", "jit_matrix", "jit_matrix", "jit_matrix", "jit_matrix", "jit_matrix", "jit_matrix", "jit_matrix", "jit_matrix", "jit_matrix", "jit_matrix", "jit_matrix", "jit_matrix", "" ],
									"patching_rect" : [ 112.5, 100.0, 691.0, 22.0 ],
									"text" : "jit.scissors @rows 8 @columns 8"
								}

							}
, 							{
								"box" : 								{
									"comment" : "",
									"id" : "obj-26",
									"index" : 1,
									"maxclass" : "inlet",
									"numinlets" : 0,
									"numoutlets" : 1,
									"outlettype" : [ "jit_matrix" ],
									"patching_rect" : [ 112.500026972412115, 40.000011002548263, 30.0, 30.0 ]
								}

							}
, 							{
								"box" : 								{
									"comment" : "",
									"id" : "obj-28",
									"index" : 1,
									"maxclass" : "outlet",
									"numinlets" : 1,
									"numoutlets" : 0,
									"patching_rect" : [ 102.000026972412115, 245.537853002548218, 30.0, 30.0 ]
								}

							}
 ],
						"lines" : [ 							{
								"patchline" : 								{
									"destination" : [ "obj-24", 63 ],
									"source" : [ "obj-16", 63 ]
								}

							}
, 							{
								"patchline" : 								{
									"destination" : [ "obj-24", 62 ],
									"source" : [ "obj-16", 62 ]
								}

							}
, 							{
								"patchline" : 								{
									"destination" : [ "obj-24", 61 ],
									"source" : [ "obj-16", 61 ]
								}

							}
, 							{
								"patchline" : 								{
									"destination" : [ "obj-24", 60 ],
									"source" : [ "obj-16", 60 ]
								}

							}
, 							{
								"patchline" : 								{
									"destination" : [ "obj-24", 59 ],
									"source" : [ "obj-16", 59 ]
								}

							}
, 							{
								"patchline" : 								{
									"destination" : [ "obj-24", 58 ],
									"source" : [ "obj-16", 58 ]
								}

							}
, 							{
								"patchline" : 								{
									"destination" : [ "obj-24", 57 ],
									"source" : [ "obj-16", 57 ]
								}

							}
, 							{
								"patchline" : 								{
									"destination" : [ "obj-24", 56 ],
									"source" : [ "obj-16", 56 ]
								}

							}
, 							{
								"patchline" : 								{
									"destination" : [ "obj-24", 55 ],
									"source" : [ "obj-16", 55 ]
								}

							}
, 							{
								"patchline" : 								{
									"destination" : [ "obj-24", 54 ],
									"source" : [ "obj-16", 54 ]
								}

							}
, 							{
								"patchline" : 								{
									"destination" : [ "obj-24", 53 ],
									"source" : [ "obj-16", 53 ]
								}

							}
, 							{
								"patchline" : 								{
									"destination" : [ "obj-24", 52 ],
									"source" : [ "obj-16", 52 ]
								}

							}
, 							{
								"patchline" : 								{
									"destination" : [ "obj-24", 51 ],
									"source" : [ "obj-16", 51 ]
								}

							}
, 							{
								"patchline" : 								{
									"destination" : [ "obj-24", 50 ],
									"source" : [ "obj-16", 50 ]
								}

							}
, 							{
								"patchline" : 								{
									"destination" : [ "obj-24", 49 ],
									"source" : [ "obj-16", 49 ]
								}

							}
, 							{
								"patchline" : 								{
									"destination" : [ "obj-24", 48 ],
									"source" : [ "obj-16", 48 ]
								}

							}
, 							{
								"patchline" : 								{
									"destination" : [ "obj-24", 47 ],
									"source" : [ "obj-16", 47 ]
								}

							}
, 							{
								"patchline" : 								{
									"destination" : [ "obj-24", 46 ],
									"source" : [ "obj-16", 46 ]
								}

							}
, 							{
								"patchline" : 								{
									"destination" : [ "obj-24", 45 ],
									"source" : [ "obj-16", 45 ]
								}

							}
, 							{
								"patchline" : 								{
									"destination" : [ "obj-24", 44 ],
									"source" : [ "obj-16", 44 ]
								}

							}
, 							{
								"patchline" : 								{
									"destination" : [ "obj-24", 43 ],
									"source" : [ "obj-16", 43 ]
								}

							}
, 							{
								"patchline" : 								{
									"destination" : [ "obj-24", 42 ],
									"source" : [ "obj-16", 42 ]
								}

							}
, 							{
								"patchline" : 								{
									"destination" : [ "obj-24", 41 ],
									"source" : [ "obj-16", 41 ]
								}

							}
, 							{
								"patchline" : 								{
									"destination" : [ "obj-24", 40 ],
									"source" : [ "obj-16", 40 ]
								}

							}
, 							{
								"patchline" : 								{
									"destination" : [ "obj-24", 39 ],
									"source" : [ "obj-16", 39 ]
								}

							}
, 							{
								"patchline" : 								{
									"destination" : [ "obj-24", 38 ],
									"source" : [ "obj-16", 38 ]
								}

							}
, 							{
								"patchline" : 								{
									"destination" : [ "obj-24", 37 ],
									"source" : [ "obj-16", 37 ]
								}

							}
, 							{
								"patchline" : 								{
									"destination" : [ "obj-24", 36 ],
									"source" : [ "obj-16", 36 ]
								}

							}
, 							{
								"patchline" : 								{
									"destination" : [ "obj-24", 35 ],
									"source" : [ "obj-16", 35 ]
								}

							}
, 							{
								"patchline" : 								{
									"destination" : [ "obj-24", 34 ],
									"source" : [ "obj-16", 34 ]
								}

							}
, 							{
								"patchline" : 								{
									"destination" : [ "obj-24", 33 ],
									"source" : [ "obj-16", 33 ]
								}

							}
, 							{
								"patchline" : 								{
									"destination" : [ "obj-24", 32 ],
									"source" : [ "obj-16", 32 ]
								}

							}
, 							{
								"patchline" : 								{
									"destination" : [ "obj-24", 31 ],
									"source" : [ "obj-16", 31 ]
								}

							}
, 							{
								"patchline" : 								{
									"destination" : [ "obj-24", 30 ],
									"source" : [ "obj-16", 30 ]
								}

							}
, 							{
								"patchline" : 								{
									"destination" : [ "obj-24", 29 ],
									"source" : [ "obj-16", 29 ]
								}

							}
, 							{
								"patchline" : 								{
									"destination" : [ "obj-24", 28 ],
									"source" : [ "obj-16", 28 ]
								}

							}
, 							{
								"patchline" : 								{
									"destination" : [ "obj-24", 27 ],
									"source" : [ "obj-16", 27 ]
								}

							}
, 							{
								"patchline" : 								{
									"destination" : [ "obj-24", 26 ],
									"source" : [ "obj-16", 26 ]
								}

							}
, 							{
								"patchline" : 								{
									"destination" : [ "obj-24", 25 ],
									"source" : [ "obj-16", 25 ]
								}

							}
, 							{
								"patchline" : 								{
									"destination" : [ "obj-24", 24 ],
									"source" : [ "obj-16", 24 ]
								}

							}
, 							{
								"patchline" : 								{
									"destination" : [ "obj-24", 23 ],
									"source" : [ "obj-16", 23 ]
								}

							}
, 							{
								"patchline" : 								{
									"destination" : [ "obj-24", 22 ],
									"source" : [ "obj-16", 22 ]
								}

							}
, 							{
								"patchline" : 								{
									"destination" : [ "obj-24", 21 ],
									"source" : [ "obj-16", 21 ]
								}

							}
, 							{
								"patchline" : 								{
									"destination" : [ "obj-24", 20 ],
									"source" : [ "obj-16", 20 ]
								}

							}
, 							{
								"patchline" : 								{
									"destination" : [ "obj-24", 19 ],
									"source" : [ "obj-16", 19 ]
								}

							}
, 							{
								"patchline" : 								{
									"destination" : [ "obj-24", 18 ],
									"source" : [ "obj-16", 18 ]
								}

							}
, 							{
								"patchline" : 								{
									"destination" : [ "obj-24", 17 ],
									"source" : [ "obj-16", 17 ]
								}

							}
, 							{
								"patchline" : 								{
									"destination" : [ "obj-24", 16 ],
									"source" : [ "obj-16", 16 ]
								}

							}
, 							{
								"patchline" : 								{
									"destination" : [ "obj-24", 15 ],
									"source" : [ "obj-16", 15 ]
								}

							}
, 							{
								"patchline" : 								{
									"destination" : [ "obj-24", 14 ],
									"source" : [ "obj-16", 14 ]
								}

							}
, 							{
								"patchline" : 								{
									"destination" : [ "obj-24", 13 ],
									"source" : [ "obj-16", 13 ]
								}

							}
, 							{
								"patchline" : 								{
									"destination" : [ "obj-24", 12 ],
									"source" : [ "obj-16", 12 ]
								}

							}
, 							{
								"patchline" : 								{
									"destination" : [ "obj-24", 11 ],
									"source" : [ "obj-16", 11 ]
								}

							}
, 							{
								"patchline" : 								{
									"destination" : [ "obj-24", 10 ],
									"source" : [ "obj-16", 10 ]
								}

							}
, 							{
								"patchline" : 								{
									"destination" : [ "obj-24", 9 ],
									"source" : [ "obj-16", 9 ]
								}

							}
, 							{
								"patchline" : 								{
									"destination" : [ "obj-24", 8 ],
									"source" : [ "obj-16", 8 ]
								}

							}
, 							{
								"patchline" : 								{
									"destination" : [ "obj-24", 7 ],
									"source" : [ "obj-16", 7 ]
								}

							}
, 							{
								"patchline" : 								{
									"destination" : [ "obj-24", 6 ],
									"source" : [ "obj-16", 6 ]
								}

							}
, 							{
								"patchline" : 								{
									"destination" : [ "obj-24", 5 ],
									"source" : [ "obj-16", 5 ]
								}

							}
, 							{
								"patchline" : 								{
									"destination" : [ "obj-24", 4 ],
									"source" : [ "obj-16", 4 ]
								}

							}
, 							{
								"patchline" : 								{
									"destination" : [ "obj-24", 3 ],
									"source" : [ "obj-16", 3 ]
								}

							}
, 							{
								"patchline" : 								{
									"destination" : [ "obj-24", 2 ],
									"source" : [ "obj-16", 2 ]
								}

							}
, 							{
								"patchline" : 								{
									"destination" : [ "obj-24", 1 ],
									"source" : [ "obj-16", 1 ]
								}

							}
, 							{
								"patchline" : 								{
									"destination" : [ "obj-24", 0 ],
									"source" : [ "obj-16", 0 ]
								}

							}
, 							{
								"patchline" : 								{
									"destination" : [ "obj-16", 0 ],
									"source" : [ "obj-18", 0 ]
								}

							}
, 							{
								"patchline" : 								{
									"destination" : [ "obj-28", 0 ],
									"source" : [ "obj-24", 0 ]
								}

							}
, 							{
								"patchline" : 								{
									"destination" : [ "obj-4", 0 ],
									"source" : [ "obj-26", 0 ]
								}

							}
, 							{
								"patchline" : 								{
									"destination" : [ "obj-16", 64 ],
									"source" : [ "obj-4", 63 ]
								}

							}
, 							{
								"patchline" : 								{
									"destination" : [ "obj-16", 63 ],
									"source" : [ "obj-4", 62 ]
								}

							}
, 							{
								"patchline" : 								{
									"destination" : [ "obj-16", 62 ],
									"source" : [ "obj-4", 61 ]
								}

							}
, 							{
								"patchline" : 								{
									"destination" : [ "obj-16", 61 ],
									"source" : [ "obj-4", 60 ]
								}

							}
, 							{
								"patchline" : 								{
									"destination" : [ "obj-16", 60 ],
									"source" : [ "obj-4", 59 ]
								}

							}
, 							{
								"patchline" : 								{
									"destination" : [ "obj-16", 59 ],
									"source" : [ "obj-4", 58 ]
								}

							}
, 							{
								"patchline" : 								{
									"destination" : [ "obj-16", 58 ],
									"source" : [ "obj-4", 57 ]
								}

							}
, 							{
								"patchline" : 								{
									"destination" : [ "obj-16", 57 ],
									"source" : [ "obj-4", 56 ]
								}

							}
, 							{
								"patchline" : 								{
									"destination" : [ "obj-16", 56 ],
									"source" : [ "obj-4", 55 ]
								}

							}
, 							{
								"patchline" : 								{
									"destination" : [ "obj-16", 55 ],
									"source" : [ "obj-4", 54 ]
								}

							}
, 							{
								"patchline" : 								{
									"destination" : [ "obj-16", 54 ],
									"source" : [ "obj-4", 53 ]
								}

							}
, 							{
								"patchline" : 								{
									"destination" : [ "obj-16", 53 ],
									"source" : [ "obj-4", 52 ]
								}

							}
, 							{
								"patchline" : 								{
									"destination" : [ "obj-16", 52 ],
									"source" : [ "obj-4", 51 ]
								}

							}
, 							{
								"patchline" : 								{
									"destination" : [ "obj-16", 51 ],
									"source" : [ "obj-4", 50 ]
								}

							}
, 							{
								"patchline" : 								{
									"destination" : [ "obj-16", 50 ],
									"source" : [ "obj-4", 49 ]
								}

							}
, 							{
								"patchline" : 								{
									"destination" : [ "obj-16", 49 ],
									"source" : [ "obj-4", 48 ]
								}

							}
, 							{
								"patchline" : 								{
									"destination" : [ "obj-16", 48 ],
									"source" : [ "obj-4", 47 ]
								}

							}
, 							{
								"patchline" : 								{
									"destination" : [ "obj-16", 47 ],
									"source" : [ "obj-4", 46 ]
								}

							}
, 							{
								"patchline" : 								{
									"destination" : [ "obj-16", 46 ],
									"source" : [ "obj-4", 45 ]
								}

							}
, 							{
								"patchline" : 								{
									"destination" : [ "obj-16", 45 ],
									"source" : [ "obj-4", 44 ]
								}

							}
, 							{
								"patchline" : 								{
									"destination" : [ "obj-16", 44 ],
									"source" : [ "obj-4", 43 ]
								}

							}
, 							{
								"patchline" : 								{
									"destination" : [ "obj-16", 43 ],
									"source" : [ "obj-4", 42 ]
								}

							}
, 							{
								"patchline" : 								{
									"destination" : [ "obj-16", 42 ],
									"source" : [ "obj-4", 41 ]
								}

							}
, 							{
								"patchline" : 								{
									"destination" : [ "obj-16", 41 ],
									"source" : [ "obj-4", 40 ]
								}

							}
, 							{
								"patchline" : 								{
									"destination" : [ "obj-16", 40 ],
									"source" : [ "obj-4", 39 ]
								}

							}
, 							{
								"patchline" : 								{
									"destination" : [ "obj-16", 39 ],
									"source" : [ "obj-4", 38 ]
								}

							}
, 							{
								"patchline" : 								{
									"destination" : [ "obj-16", 38 ],
									"source" : [ "obj-4", 37 ]
								}

							}
, 							{
								"patchline" : 								{
									"destination" : [ "obj-16", 37 ],
									"source" : [ "obj-4", 36 ]
								}

							}
, 							{
								"patchline" : 								{
									"destination" : [ "obj-16", 36 ],
									"source" : [ "obj-4", 35 ]
								}

							}
, 							{
								"patchline" : 								{
									"destination" : [ "obj-16", 35 ],
									"source" : [ "obj-4", 34 ]
								}

							}
, 							{
								"patchline" : 								{
									"destination" : [ "obj-16", 34 ],
									"source" : [ "obj-4", 33 ]
								}

							}
, 							{
								"patchline" : 								{
									"destination" : [ "obj-16", 33 ],
									"source" : [ "obj-4", 32 ]
								}

							}
, 							{
								"patchline" : 								{
									"destination" : [ "obj-16", 32 ],
									"source" : [ "obj-4", 31 ]
								}

							}
, 							{
								"patchline" : 								{
									"destination" : [ "obj-16", 31 ],
									"source" : [ "obj-4", 30 ]
								}

							}
, 							{
								"patchline" : 								{
									"destination" : [ "obj-16", 30 ],
									"source" : [ "obj-4", 29 ]
								}

							}
, 							{
								"patchline" : 								{
									"destination" : [ "obj-16", 29 ],
									"source" : [ "obj-4", 28 ]
								}

							}
, 							{
								"patchline" : 								{
									"destination" : [ "obj-16", 28 ],
									"source" : [ "obj-4", 27 ]
								}

							}
, 							{
								"patchline" : 								{
									"destination" : [ "obj-16", 27 ],
									"source" : [ "obj-4", 26 ]
								}

							}
, 							{
								"patchline" : 								{
									"destination" : [ "obj-16", 26 ],
									"source" : [ "obj-4", 25 ]
								}

							}
, 							{
								"patchline" : 								{
									"destination" : [ "obj-16", 25 ],
									"source" : [ "obj-4", 24 ]
								}

							}
, 							{
								"patchline" : 								{
									"destination" : [ "obj-16", 24 ],
									"source" : [ "obj-4", 23 ]
								}

							}
, 							{
								"patchline" : 								{
									"destination" : [ "obj-16", 23 ],
									"source" : [ "obj-4", 22 ]
								}

							}
, 							{
								"patchline" : 								{
									"destination" : [ "obj-16", 22 ],
									"source" : [ "obj-4", 21 ]
								}

							}
, 							{
								"patchline" : 								{
									"destination" : [ "obj-16", 21 ],
									"source" : [ "obj-4", 20 ]
								}

							}
, 							{
								"patchline" : 								{
									"destination" : [ "obj-16", 20 ],
									"source" : [ "obj-4", 19 ]
								}

							}
, 							{
								"patchline" : 								{
									"destination" : [ "obj-16", 19 ],
									"source" : [ "obj-4", 18 ]
								}

							}
, 							{
								"patchline" : 								{
									"destination" : [ "obj-16", 18 ],
									"source" : [ "obj-4", 17 ]
								}

							}
, 							{
								"patchline" : 								{
									"destination" : [ "obj-16", 17 ],
									"source" : [ "obj-4", 16 ]
								}

							}
, 							{
								"patchline" : 								{
									"destination" : [ "obj-16", 16 ],
									"source" : [ "obj-4", 15 ]
								}

							}
, 							{
								"patchline" : 								{
									"destination" : [ "obj-16", 15 ],
									"source" : [ "obj-4", 14 ]
								}

							}
, 							{
								"patchline" : 								{
									"destination" : [ "obj-16", 14 ],
									"source" : [ "obj-4", 13 ]
								}

							}
, 							{
								"patchline" : 								{
									"destination" : [ "obj-16", 13 ],
									"source" : [ "obj-4", 12 ]
								}

							}
, 							{
								"patchline" : 								{
									"destination" : [ "obj-16", 12 ],
									"source" : [ "obj-4", 11 ]
								}

							}
, 							{
								"patchline" : 								{
									"destination" : [ "obj-16", 11 ],
									"source" : [ "obj-4", 10 ]
								}

							}
, 							{
								"patchline" : 								{
									"destination" : [ "obj-16", 10 ],
									"source" : [ "obj-4", 9 ]
								}

							}
, 							{
								"patchline" : 								{
									"destination" : [ "obj-16", 9 ],
									"source" : [ "obj-4", 8 ]
								}

							}
, 							{
								"patchline" : 								{
									"destination" : [ "obj-16", 8 ],
									"source" : [ "obj-4", 7 ]
								}

							}
, 							{
								"patchline" : 								{
									"destination" : [ "obj-16", 7 ],
									"source" : [ "obj-4", 6 ]
								}

							}
, 							{
								"patchline" : 								{
									"destination" : [ "obj-16", 6 ],
									"source" : [ "obj-4", 5 ]
								}

							}
, 							{
								"patchline" : 								{
									"destination" : [ "obj-16", 5 ],
									"source" : [ "obj-4", 4 ]
								}

							}
, 							{
								"patchline" : 								{
									"destination" : [ "obj-16", 4 ],
									"source" : [ "obj-4", 3 ]
								}

							}
, 							{
								"patchline" : 								{
									"destination" : [ "obj-16", 3 ],
									"source" : [ "obj-4", 2 ]
								}

							}
, 							{
								"patchline" : 								{
									"destination" : [ "obj-16", 2 ],
									"source" : [ "obj-4", 1 ]
								}

							}
, 							{
								"patchline" : 								{
									"destination" : [ "obj-16", 1 ],
									"source" : [ "obj-4", 0 ]
								}

							}
 ]
					}
,
					"patching_rect" : [ 131.0, 436.0, 118.0, 22.0 ],
					"saved_object_attributes" : 					{
						"description" : "",
						"digest" : "",
						"globalpatchername" : "",
						"tags" : ""
					}
,
					"text" : "p scissors_and_glue"
				}

			}
, 			{
				"box" : 				{
					"id" : "obj-36",
					"maxclass" : "newobj",
					"numinlets" : 1,
					"numoutlets" : 2,
					"outlettype" : [ "jit_matrix", "" ],
					"patching_rect" : [ 131.0, 409.0, 232.0, 22.0 ],
					"text" : "jit.matrix @planecount 4 @dim 1980 1080"
				}

			}
, 			{
				"box" : 				{
					"id" : "obj-33",
					"maxclass" : "newobj",
					"numinlets" : 4,
					"numoutlets" : 1,
					"outlettype" : [ "jit_gl_texture" ],
					"patching_rect" : [ 131.0, 383.0, 63.0, 22.0 ],
					"text" : "vz.mixfadr",
					"varname" : "vz.mixfadr"
				}

			}
, 			{
				"box" : 				{
					"id" : "obj-29",
					"maxclass" : "newobj",
					"numinlets" : 7,
					"numoutlets" : 1,
					"outlettype" : [ "jit_gl_texture" ],
					"patching_rect" : [ 131.0, 356.0, 82.0, 22.0 ],
					"text" : "vz.brcosr",
					"varname" : "vz.oper8r[1]"
				}

			}
, 			{
				"box" : 				{
					"fontsize" : 12.0,
					"id" : "obj-28",
					"maxclass" : "newobj",
					"numinlets" : 3,
					"numoutlets" : 1,
					"outlettype" : [ "jit_gl_texture" ],
					"patching_rect" : [ 131.0, 325.0, 393.0, 22.0 ],
					"text" : "vz.oper8r",
					"varname" : "vz.oper8r"
				}

			}
, 			{
				"box" : 				{
					"id" : "obj-25",
					"maxclass" : "newobj",
					"numinlets" : 1,
					"numoutlets" : 2,
					"outlettype" : [ "jit_gl_texture", "" ],
					"patching_rect" : [ 359.0, 289.0, 165.0, 22.0 ],
					"text" : "jit.gl.texture @dim 1920 1080"
				}

			}
, 			{
				"box" : 				{
					"id" : "obj-24",
					"maxclass" : "newobj",
					"numinlets" : 2,
					"numoutlets" : 2,
					"outlettype" : [ "jit_matrix", "" ],
					"patching_rect" : [ 359.0, 263.0, 165.0, 22.0 ],
					"text" : "jit.catch~ 2 @mode 3"
				}

			}
, 			{
				"box" : 				{
					"basictuning" : 440,
					"clipheight" : 29.0,
					"data" : 					{
						"clips" : [ 							{
								"absolutepath" : "Cymatics x S1 - Full Drum Loop 2 - 121 BPM.wav",
								"filename" : "Cymatics x S1 - Full Drum Loop 2 - 121 BPM.wav",
								"filekind" : "audiofile",
								"id" : "u408011646",
								"loop" : 1,
								"content_state" : 								{
									"loop" : 1
								}

							}
 ]
					}
,
					"followglobaltempo" : 0,
					"formantcorrection" : 0,
					"id" : "obj-23",
					"maxclass" : "playlist~",
					"mode" : "basic",
					"numinlets" : 1,
					"numoutlets" : 5,
					"originallength" : [ 0.0, "ticks" ],
					"originaltempo" : 120.0,
					"outlettype" : [ "signal", "signal", "signal", "", "dictionary" ],
					"parameter_enable" : 0,
					"patching_rect" : [ 359.0, 227.0, 165.0, 29.0 ],
					"pitchcorrection" : 0,
					"quality" : "basic",
					"timestretch" : [ 0 ]
				}

			}
, 			{
				"box" : 				{
					"id" : "obj-20",
					"maxclass" : "newobj",
					"numinlets" : 1,
					"numoutlets" : 2,
					"outlettype" : [ "jit_gl_texture", "" ],
					"patching_rect" : [ 131.0, 253.0, 70.0, 22.0 ],
					"text" : "jit.gl.texture"
				}

			}
, 			{
				"box" : 				{
					"id" : "obj-19",
					"maxclass" : "newobj",
					"numinlets" : 2,
					"numoutlets" : 1,
					"outlettype" : [ "bang" ],
					"patching_rect" : [ 24.0, 55.0, 119.0, 22.0 ],
					"text" : "qmetro 40 @active 1"
				}

			}
, 			{
				"box" : 				{
					"id" : "obj-18",
					"maxclass" : "toggle",
					"numinlets" : 1,
					"numoutlets" : 1,
					"outlettype" : [ "int" ],
					"parameter_enable" : 0,
					"patching_rect" : [ 131.0, 195.0, 24.0, 24.0 ]
				}

			}
, 			{
				"box" : 				{
					"id" : "obj-14",
					"maxclass" : "newobj",
					"numinlets" : 1,
					"numoutlets" : 2,
					"outlettype" : [ "jit_matrix", "" ],
					"patching_rect" : [ 131.0, 227.0, 224.0, 22.0 ],
					"text" : "jit.grab @planecount 4 @dim 1920 1080"
				}

			}
, 			{
				"box" : 				{
					"id" : "obj-7",
					"maxclass" : "newobj",
					"numinlets" : 1,
					"numoutlets" : 2,
					"outlettype" : [ "jit_gl_texture", "" ],
					"patching_rect" : [ 219.0, 383.0, 70.0, 22.0 ],
					"text" : "jit.gl.texture"
				}

			}
, 			{
				"box" : 				{
					"id" : "obj-3",
					"maxclass" : "newobj",
					"numinlets" : 1,
					"numoutlets" : 2,
					"outlettype" : [ "jit_matrix", "" ],
					"patching_rect" : [ 219.0, 356.0, 133.0, 22.0 ],
					"text" : "jit.noise 4 char 128 128"
				}

			}
 ],
		"lines" : [ 			{
				"patchline" : 				{
					"destination" : [ "obj-20", 0 ],
					"source" : [ "obj-14", 0 ]
				}

			}
, 			{
				"patchline" : 				{
					"destination" : [ "obj-14", 0 ],
					"order" : 1,
					"source" : [ "obj-18", 0 ]
				}

			}
, 			{
				"patchline" : 				{
					"destination" : [ "obj-23", 0 ],
					"order" : 0,
					"source" : [ "obj-18", 0 ]
				}

			}
, 			{
				"patchline" : 				{
					"destination" : [ "obj-52", 0 ],
					"source" : [ "obj-19", 0 ]
				}

			}
, 			{
				"patchline" : 				{
					"destination" : [ "obj-28", 0 ],
					"source" : [ "obj-20", 0 ]
				}

			}
, 			{
				"patchline" : 				{
					"destination" : [ "obj-24", 1 ],
					"source" : [ "obj-23", 1 ]
				}

			}
, 			{
				"patchline" : 				{
					"destination" : [ "obj-24", 0 ],
					"source" : [ "obj-23", 0 ]
				}

			}
, 			{
				"patchline" : 				{
					"destination" : [ "obj-25", 0 ],
					"source" : [ "obj-24", 0 ]
				}

			}
, 			{
				"patchline" : 				{
					"destination" : [ "obj-28", 1 ],
					"source" : [ "obj-25", 0 ]
				}

			}
, 			{
				"patchline" : 				{
					"destination" : [ "obj-29", 0 ],
					"order" : 1,
					"source" : [ "obj-28", 0 ]
				}

			}
, 			{
				"patchline" : 				{
					"destination" : [ "obj-59", 0 ],
					"order" : 0,
					"source" : [ "obj-28", 0 ]
				}

			}
, 			{
				"patchline" : 				{
					"destination" : [ "obj-33", 0 ],
					"order" : 1,
					"source" : [ "obj-29", 0 ]
				}

			}
, 			{
				"patchline" : 				{
					"destination" : [ "obj-60", 0 ],
					"order" : 0,
					"source" : [ "obj-29", 0 ]
				}

			}
, 			{
				"patchline" : 				{
					"destination" : [ "obj-7", 0 ],
					"source" : [ "obj-3", 0 ]
				}

			}
, 			{
				"patchline" : 				{
					"destination" : [ "obj-36", 0 ],
					"source" : [ "obj-33", 0 ]
				}

			}
, 			{
				"patchline" : 				{
					"destination" : [ "obj-38", 0 ],
					"source" : [ "obj-36", 0 ]
				}

			}
, 			{
				"patchline" : 				{
					"destination" : [ "obj-44", 0 ],
					"source" : [ "obj-38", 0 ]
				}

			}
, 			{
				"patchline" : 				{
					"destination" : [ "obj-27", 0 ],
					"source" : [ "obj-40", 0 ]
				}

			}
, 			{
				"patchline" : 				{
					"destination" : [ "obj-27", 1 ],
					"source" : [ "obj-42", 0 ]
				}

			}
, 			{
				"patchline" : 				{
					"destination" : [ "obj-48", 0 ],
					"source" : [ "obj-44", 0 ]
				}

			}
, 			{
				"patchline" : 				{
					"destination" : [ "obj-40", 0 ],
					"order" : 0,
					"source" : [ "obj-45", 0 ]
				}

			}
, 			{
				"patchline" : 				{
					"destination" : [ "obj-57", 0 ],
					"order" : 1,
					"source" : [ "obj-45", 0 ]
				}

			}
, 			{
				"patchline" : 				{
					"destination" : [ "obj-24", 0 ],
					"source" : [ "obj-53", 0 ]
				}

			}
, 			{
				"patchline" : 				{
					"destination" : [ "obj-14", 0 ],
					"source" : [ "obj-54", 0 ]
				}

			}
, 			{
				"patchline" : 				{
					"destination" : [ "obj-3", 0 ],
					"source" : [ "obj-55", 0 ]
				}

			}
, 			{
				"patchline" : 				{
					"destination" : [ "obj-58", 0 ],
					"source" : [ "obj-57", 0 ]
				}

			}
, 			{
				"patchline" : 				{
					"destination" : [ "obj-29", 3 ],
					"order" : 0,
					"source" : [ "obj-58", 0 ]
				}

			}
, 			{
				"patchline" : 				{
					"destination" : [ "obj-29", 2 ],
					"order" : 1,
					"source" : [ "obj-58", 0 ]
				}

			}
, 			{
				"patchline" : 				{
					"destination" : [ "obj-29", 1 ],
					"order" : 2,
					"source" : [ "obj-58", 0 ]
				}

			}
, 			{
				"patchline" : 				{
					"destination" : [ "obj-45", 0 ],
					"source" : [ "obj-62", 0 ]
				}

			}
, 			{
				"patchline" : 				{
					"destination" : [ "obj-33", 1 ],
					"source" : [ "obj-7", 0 ]
				}

			}
 ],
		"parameters" : 		{
			"obj-28::obj-29" : [ "range[7]", "range", 0 ],
			"obj-28::obj-31::obj-23" : [ "gswitch2[9]", "gswitch2", 0 ],
			"obj-28::obj-32::obj-23" : [ "gswitch2[8]", "gswitch2", 0 ],
			"obj-28::obj-36" : [ "pictctrl[8]", "pictctrl[1]", 0 ],
			"obj-28::obj-37" : [ "umenu[1]", "umenu", 0 ],
			"obj-29::obj-104" : [ "pictctrl[9]", "pictctrl[1]", 0 ],
			"obj-29::obj-119" : [ "Brightness", "Brightness", 0 ],
			"obj-29::obj-120" : [ "Brightness range", "Brightness range", 1 ],
			"obj-29::obj-121" : [ "Offset[2]", "Brightness", 0 ],
			"obj-29::obj-127" : [ "Contrast", "Contrast", 0 ],
			"obj-29::obj-128" : [ "Contrast range", "Contrast range", 1 ],
			"obj-29::obj-129" : [ "contrast", "Contrast", 0 ],
			"obj-29::obj-140" : [ "Saturation", "Saturation", 0 ],
			"obj-29::obj-141" : [ "Saturation range", "Saturation range", 1 ],
			"obj-29::obj-142" : [ "saturation[1]", "Saturation", 0 ],
			"obj-29::obj-147" : [ "pictctrl[44]", "pictctrl[1]", 0 ],
			"obj-29::obj-148" : [ "pictctrl[43]", "pictctrl[1]", 0 ],
			"obj-29::obj-149" : [ "pictctrl[42]", "pictctrl[1]", 0 ],
			"obj-29::obj-150" : [ "pictctrl[28]", "pictctrl[1]", 0 ],
			"obj-29::obj-151" : [ "pictctrl[27]", "pictctrl[1]", 0 ],
			"obj-29::obj-56::obj-23" : [ "gswitch2[2]", "gswitch2", 0 ],
			"obj-29::obj-6" : [ "range[5]", "range", 0 ],
			"obj-33::obj-17::obj-23" : [ "gswitch2[16]", "gswitch2", 0 ],
			"obj-33::obj-21" : [ "range[10]", "range", 0 ],
			"obj-33::obj-24" : [ "pictctrl[17]", "pictctrl[1]", 0 ],
			"obj-33::obj-26" : [ "Crossfade[1]", "Crossfade", 0 ],
			"obj-33::obj-39" : [ "Operator mode[1]", "Operator mode", 0 ],
			"obj-33::obj-51" : [ "pictctrl[45]", "pictctrl[1]", 0 ],
			"obj-33::obj-56::obj-23" : [ "gswitch2[15]", "gswitch2", 0 ],
			"parameterbanks" : 			{

			}
,
			"parameter_overrides" : 			{
				"obj-28::obj-36" : 				{
					"parameter_longname" : "pictctrl[8]"
				}
,
				"obj-28::obj-37" : 				{
					"parameter_longname" : "umenu[1]"
				}
,
				"obj-33::obj-24" : 				{
					"parameter_longname" : "pictctrl[17]"
				}
,
				"obj-33::obj-26" : 				{
					"parameter_longname" : "Crossfade[1]"
				}
,
				"obj-33::obj-39" : 				{
					"parameter_longname" : "Operator mode[1]"
				}
,
				"obj-33::obj-51" : 				{
					"parameter_longname" : "pictctrl[45]"
				}

			}
,
			"inherited_shortname" : 1
		}
,
		"dependency_cache" : [ 			{
				"name" : "Cymatics x S1 - Full Drum Loop 2 - 121 BPM.wav",
				"bootpath" : "~/Documents/Max 8/Packages/drums/Cymatics x S1 - Artist Series Sample Pack/Drum Loops",
				"patcherrelativepath" : "../../../../Documents/Max 8/Packages/drums/Cymatics x S1 - Artist Series Sample Pack/Drum Loops",
				"type" : "WAVE",
				"implicit" : 1
			}
, 			{
				"name" : "brcosa.genjit",
				"bootpath" : "~/Library/Application Support/Cycling '74/Max 8/Examples/jitter-examples/gen",
				"patcherrelativepath" : "../../../../Library/Application Support/Cycling '74/Max 8/Examples/jitter-examples/gen",
				"type" : "gJIT",
				"implicit" : 1
			}
, 			{
				"name" : "data-handler.maxpat",
				"bootpath" : "C74:/packages/Vizzie/patchers/utils",
				"type" : "JSON",
				"implicit" : 1
			}
, 			{
				"name" : "exact_menu.maxpat",
				"bootpath" : "C74:/packages/Vizzie/patchers/utils",
				"type" : "JSON",
				"implicit" : 1
			}
, 			{
				"name" : "lo_hi_UI_control.maxpat",
				"bootpath" : "C74:/packages/Vizzie/patchers/utils",
				"type" : "JSON",
				"implicit" : 1
			}
, 			{
				"name" : "video-handler.maxpat",
				"bootpath" : "C74:/packages/Vizzie/patchers/utils",
				"type" : "JSON",
				"implicit" : 1
			}
, 			{
				"name" : "vizzie-datatexconvert.js",
				"bootpath" : "C74:/packages/Vizzie/code",
				"type" : "TEXT",
				"implicit" : 1
			}
, 			{
				"name" : "vizzie-global.js",
				"bootpath" : "C74:/packages/Vizzie/code",
				"type" : "TEXT",
				"implicit" : 1
			}
, 			{
				"name" : "vz.brcosr.maxpat",
				"bootpath" : "C74:/packages/Vizzie/patchers",
				"type" : "JSON",
				"implicit" : 1
			}
, 			{
				"name" : "vz.mixfadr.maxpat",
				"bootpath" : "C74:/packages/Vizzie/patchers",
				"type" : "JSON",
				"implicit" : 1
			}
, 			{
				"name" : "vz.oper8r.maxpat",
				"bootpath" : "C74:/packages/Vizzie/patchers",
				"type" : "JSON",
				"implicit" : 1
			}
, 			{
				"name" : "vzgl-disable.maxpat",
				"bootpath" : "C74:/packages/Vizzie/patchers/utils",
				"type" : "JSON",
				"implicit" : 1
			}
, 			{
				"name" : "vzgl-object.maxpat",
				"bootpath" : "C74:/packages/Vizzie/patchers/utils",
				"type" : "JSON",
				"implicit" : 1
			}
, 			{
				"name" : "vzgl-outputdim.maxpat",
				"bootpath" : "C74:/packages/Vizzie/patchers/utils",
				"type" : "JSON",
				"implicit" : 1
			}
, 			{
				"name" : "vzgl-routegl.maxpat",
				"bootpath" : "C74:/packages/Vizzie/patchers/utils",
				"type" : "JSON",
				"implicit" : 1
			}
, 			{
				"name" : "xfade.genjit",
				"bootpath" : "~/Library/Application Support/Cycling '74/Max 8/Examples/jitter-examples/gen",
				"patcherrelativepath" : "../../../../Library/Application Support/Cycling '74/Max 8/Examples/jitter-examples/gen",
				"type" : "gJIT",
				"implicit" : 1
			}
 ],
		"autosave" : 0
	}

}
